<?xml version="1.0" encoding="UTF-8"?>
<svg version="1.1" viewBox="0 0 2048 2048" width="625" height="625" xmlns="http://www.w3.org/2000/svg">
<path transform="translate(379,865)" d="m0 0h36l20 3 20 6 16 8 13 9 7 6 7 8 10 14 5 10 4-2 9-11 15-14 19-13 16-9 20-8 20-5 15-2h34l20 3 15 4 16 7 12 7 11 9 8 8 10 14 9 17 7 21 4 20 2 20v266h-146l-1-233-2-19-4-11-6-10-5-5-9-6-10-3h-20l-14 4-11 7-10 10-8 15-3 11-1 23v216l-1 1h-146l-1-241-3-16-7-14-7-8-14-7-4-1h-21l-13 4-12 7-8 8-8 13-4 13-1 6-1 236h-146l-1-3v-383l2-2h117l2 1 9 55 5-5 14-15 13-11 17-11 23-11 18-6 19-4z" fill="#3193FF"/>
<path transform="translate(989,865)" d="m0 0h53l34 3 28 5 21 6 20 7 22 11 14 10 11 10 11 15 7 15 4 13 2 10 1 10 1 167 2 10 6 9 6 3 4 1 31 1v85l-12 5-24 6-22 3h-39l-26-4-16-5-13-6-10-6-10-9-8-9-4-8-11 7-14 9-22 12-21 8-17 5-22 4-18 2h-40l-25-3-20-5-20-8-14-9-10-9-9-10-8-14-5-14-3-13-1-7v-34l3-19 5-17 8-16 10-13 10-10 14-10 16-9 23-9 28-7 24-4 38-4 35-2 53-2v-21l-2-12-6-12-9-8-12-6-10-3-8-1h-19l-17 3-13 5-8 6-5 8-2 13-1 1h-143l-1-1v-23l5-21 8-16 8-11 5-6h2l1-3 11-9 10-7 14-8 18-8 19-6 22-5 27-4zm71 227-33 2-25 4-20 6-15 8-10 9-6 9-2 7v12l3 10 6 8 8 6 10 4 11 2h23l14-3 13-5 11-6 11-9 7-10 4-11 1-7v-36z" fill="#3193FE"/>
<path transform="translate(1341,756)" d="m0 0h108v117h36l46 1v98l-81 1v156l3 19 6 12 8 6 9 3 6 1 48 1 1 1 1 83-2 3-21 5-32 5-22 2h-40l-30-4-21-6-12-5-13-7-10-8-8-8-9-15-5-14-3-14-1-8-1-36v-90l1-82h-53l-2-3v-95l1-2h60l2-10 15-56 13-48z" fill="#3193FE"/>
<path transform="translate(1562,873)" d="m0 0 146 1 1 21v365l-1 1h-146z" fill="#3193FF"/>
<path transform="translate(1761,1115)" d="m0 0h154l1 1v145l-150 1-6-1v-145z" fill="#3193FF"/>
<path transform="translate(1562,729)" d="m0 0h146l1 97-2 2h-145z" fill="#3193FF"/>
<path transform="translate(1686,1321)" d="m0 0h35l10 4 7 8 3 7 1 9-2 12-6 12-8 7-8 4-14 2h-29l1-11 9-51zm15 13-2 8-5 30 1 1h9l8-2 6-4 4-7 1-3v-15l-4-6-5-2z" fill="#3193FF"/>
<path transform="translate(1753,1321)" d="m0 0h49l-1 11-1 2h-32l-1 8-1 5h29l1 2-2 10-1 1h-30l-1 12 32 1-1 11-1 2h-49l-1-4 10-57z" fill="#3193FF"/>
<path transform="translate(1807,1321)" d="m0 0h18l1 2 5 43v4l3-3 13-28 8-17 1-1h18l-2 5-18 35-12 22-2 3h-21l-2-2-10-59z" fill="#3193FF"/>
</svg>
