<?xml version="1.0" encoding="UTF-8"?>
<svg version="1.1" viewBox="0 0 2048 815" width="625" height="249" xmlns="http://www.w3.org/2000/svg">
<path transform="translate(380,229)" d="m0 0h34l21 3 20 6 16 8 13 9 7 6 7 8 10 14 5 10 4-2 9-11 15-14 19-13 16-9 15-6 16-5 15-3 9-1h33l21 3 18 5 19 9 11 8 10 9 8 9 9 14 8 17 6 20 4 24 1 12v265l-1 1h-145l-1-233-2-19-4-11-6-10-4-5-10-6-10-3h-21l-13 4-10 6-7 6-7 10-5 10-3 11-1 23v216l-1 1h-146l-1-241-3-16-7-14-8-9-10-5-7-2h-21l-14 4-11 7-8 8-8 13-4 13-1 6-1 235-1 1h-145l-1-3v-383l2-2h117l2 1 9 55 5-5 14-15 13-11 19-12 21-10 18-6 20-4z" fill="#3194FD"/>
<path transform="translate(990,229)" d="m0 0h52l25 2 32 5 23 6 20 7 25 12 14 10 11 10 11 15 8 17 5 21 1 10 1 167 3 12 7 8 5 2 6 1 28 1v84l-5 3-16 5-17 4-26 3h-26l-26-3-19-5-17-7-11-7-12-11-7-10-3-4-18 12-17 10-19 9-27 9-20 4-16 2-15 1h-24l-23-2-17-3-15-4-17-7-12-7-11-9-7-7-10-15-6-15-4-16-1-8v-34l3-19 7-21 8-14 8-10 11-11 16-11 17-9 22-8 25-6 31-5 29-3 33-2 57-2v-21l-2-12-6-12-7-7-14-7-10-3-7-1h-21l-16 3-13 5-8 6-5 8-2 13-2 1h-142l-1-1v-23l5-21 8-16 8-11 8-9 11-9 10-7 14-8 18-8 19-6 27-6 31-4zm64 227-29 2-24 4-17 5-16 8-9 7-6 8-4 11v12l3 9 6 9 9 6 11 4 14 2h14l14-2 15-5 14-8 10-9 7-9 4-11 1-7v-36z" fill="#3094FD"/>
<path transform="translate(1341,120)" d="m0 0h107l1 1v116h33l49 1v98l-81 1v155l2 16 4 11 4 5v2l4 2 9 4 13 2 45 1 1 84-3 3-27 6-29 4-25 2h-25l-23-2-26-5-17-6-16-8-13-10-8-9-6-10-5-11-4-15-2-13-1-36v-172h-46l-7-1-1-3v-94l1-2h60l2-10 18-67 10-37z" fill="#3194FD"/>
<path transform="translate(1562,237)" d="m0 0 146 1 1 21v365l-1 1h-146z" fill="#3194FD"/>
<path transform="translate(1761,479)" d="m0 0h154l1 1v144l-1 1h-155v-145z" fill="#3295FD"/>
<path transform="translate(1563,93)" d="m0 0h145l1 97-1 2h-146v-98z" fill="#3194FD"/>
<path transform="translate(1687,684)" d="m0 0h25l11 1 9 4 6 7 3 7 1 10-2 12-5 10-5 6-8 5-11 3h-36l1-10 9-52zm15 13-2 2-6 37h13l8-3 6-7 2-6v-15l-5-6-9-2z" fill="#3898FD"/>
<path transform="translate(1754,684)" d="m0 0h48l-1 11-1 2-4 1h-27l-3 12h29l1 2-2 11-30 1-2 11 31 1 1 4-2 9h-50l1-9 9-51z" fill="#3797FD"/>
<path transform="translate(1807,684)" d="m0 0h17l2 3 5 42v5h2l2-6 16-34 5-9 18-1-2 6-10 19-12 23-7 12-3 5h-22l-1-1-10-59z" fill="#3898FD"/>
<path transform="translate(133,461)" d="m0 0h1l1 114 1 24 1 4 2 11 1 2 9 2 5 1 43 1 62 1 10-4 3-1v-2l2-1 1-5h1l2 16-1 1h-145z" fill="#228AFE"/>
<path transform="translate(525,519)" d="m0 0h1l1 59v46l-144 1 1-55h1l3 17 1 20 2 9 8 1 26 2 20 1 53 1 14 1 5-3 4-5h2l1-9z" fill="#1C87FE"/>
<path transform="translate(1762,480)" d="m0 0 3 1-2 1 1 134 8 1 3 1 30 1 15 1 67 1 17 2v1h-143z" fill="#1C87FE"/>
<path transform="translate(1564,606)" d="m0 0 2 2 4 8 3 1v2l9 1 2 1 9-1h11l18 1h59l3 1 12 1v1h-119l-13 1z" fill="#1C87FE"/>
<path transform="translate(634,546)" d="m0 0h1l2 36v16l2 13 2 5 15 5 2 2-2 1h-22z" fill="#1C87FF"/>
<path transform="translate(1564,148)" d="m0 0 2 3 2 10 2 21 1 3 7 1 5 4h-19z" fill="#1C87FF"/>
<path transform="translate(1527,260)" d="m0 0h2l1 16v31l-2 11-1 3h-2l-1 2v-11l1-4 1-24v-20z" fill="#1C87FF"/>
<path transform="translate(1446,120)" d="m0 0 2 2v25l-1 50-1 3 1 7h1v11l-3 4-1-6v-27h1l1-51-1-17z" fill="#1D88FE"/>
<path transform="translate(1706,150)" d="m0 0h1v41h-6l-3-3 2-6 3-1 2-30z" fill="#1C87FF"/>
<path transform="translate(1706,553)" d="m0 0h1v55h-3l-1-10v-16l2-1v-13z" fill="#1C87FF"/>
<path transform="translate(668,621)" d="m0 0h20l26 1v2h-36l-10-1z" fill="#1C87FF"/>
<path transform="translate(1914,587)" d="m0 0h1v27l-6 2-2-2 3-7 3-19z" fill="#1C87FF"/>
<path transform="translate(274,572)" d="m0 0h1v27l-2 9-3 3 2-31z" fill="#1C87FF"/>
<path transform="translate(1912,506)" d="m0 0 2 3v32h-1l-1-9-1-3v-11z" fill="#1C87FF"/>
<path transform="translate(1447,147)" d="m0 0h1v58h-2l-1-6 1-2z" fill="#2D92FD"/>
<path transform="translate(1444,200)" d="m0 0h2l1 7h1v11l-3 4-1-6z" fill="#1C87FF"/>
<path transform="translate(1528,325)" d="m0 0 2 1v10l-10-1 4-2 2-6h2z" fill="#1C87FE"/>
<path transform="translate(1493,333)" d="m0 0h15l2 1v2h-14l-10-1v-1z" fill="#1C87FE"/>
<path transform="translate(1703,618)" d="m0 0h4v6l-6-1v-3z" fill="#1C87FF"/>
<path transform="translate(1914,619)" d="m0 0h1v5h-10l-1-2 7-2z" fill="#1C87FF"/>
</svg>
